# xmcd CD database file
#
# Track frame offsets:
#	150
#	15372
#	26605
#	44396
#	58968
#	70883
#	81354
#	96210
#	109326
#	124092
#	137614
#	153426
#	165427
#	179928
#
# Disc length: 2561 seconds
#
# Revision: 0
# Processed by: cddbd v1.4b42PL1 Copyright (c) Steve Scherf et al.
# Submitted via: Feurio! 1.62 - http://www.feurio.com
#
DISCID=c009ff0e
DTITLE=Tom Astor - Sternstunden der Country Musik
DYEAR=1900
DGENRE=
TTITLE0=Sonntagmorgen
TTITLE1=Ist lange her
TTITLE2=Mein Daddy
TTITLE3=Mein Freund Charly
TTITLE4=Tränen auf Leder
TTITLE5=Einmal in Jahr
TTITLE6=Sie ist jung und ich ein Mann
TTITLE7=Amanda
TTITLE8=Disco Wetern Rodeo
TTITLE9=Ich hatte doch heut`Abend noch
TTITLE10=Abschied
TTITLE11=Wer verliert gewinnt irgendwan
TTITLE12=Ich hör`so gern Cajun-Music
TTITLE13=Kopf hoch Mann
EXTD=
EXTT0=
EXTT1=
EXTT2=
EXTT3=
EXTT4=
EXTT5=
EXTT6=
EXTT7=
EXTT8=
EXTT9=
EXTT10=
EXTT11=
EXTT12=
EXTT13=
PLAYORDER=
